<svg xmlns="http://www.w3.org/2000/svg" fill="#2980b9" width="666.667" height="666.667" version="1.0" viewBox="139.58 172.24 232.42 171.64"><path d="M150.6 173c-4.6 1.5-9.6 5.3-10.4 8-.4 1.4-.7 5.2-.6 8.5 0 6.1.9 9 36.7 115 4.7 13.7 9.1 26.1 9.9 27.5 5.3 9.7 8.2 11.4 19.8 11.4 12.6.1 17.7-3.5 22.1-15.4 1.2-3.3 2.5-6 2.8-6 .4 0 3.4 1 6.6 2.2 5 1.9 8.1 2.2 18 2.2 10.2 0 12.7-.3 16.8-2.2 2.7-1.2 5.4-2.2 6-2.2.7 0 2.5 3.2 4 7 4.9 12.1 12.8 16.4 26.4 14.4 6.3-.9 9.7-2.7 12.6-6.6 3.2-4.3 10.1-22.8 22.8-60.8 2.6-8 6.6-19.7 8.9-26 11.1-30.9 19-56.6 19-61.9 0-9.2-5.4-14.6-15.5-15.6-13.8-1.5-23.8 3.4-28.5 13.9-2.4 5.3-10 28.4-14.7 44.3-.9 2.9-1.9 5.3-2.3 5.3-.3 0-3-2.9-5.9-6.5-2.8-3.6-7.8-8.2-10.9-10.3-3.1-2-6.1-4.4-6.7-5.2-.5-.8-2.8-7.9-5-15.8-2.3-7.8-5.1-15.5-6.2-17-3.5-4.8-10.2-8.2-17.3-8.8-11-1-19.4 2.6-23.7 10.1-2.5 4.3-7.7 19.7-9.4 27.5-.7 3.5-1.7 5.1-3.6 6.1-3.6 1.9-15.7 15.1-17.7 19.3-.9 1.9-2 3.8-2.5 4.1-.5.3-4.1-9.5-8.1-21.8-11.5-35.5-13.6-39.5-22.4-43.2-4.7-2-16.9-2.8-21-1.5zm119.9 43 5 2.5.3 9.2.3 9.2-4.1 2.1c-2.2 1.1-7.1 4.3-10.9 7l-6.8 5-9.8-3c-5.4-1.7-10-3.2-10.1-3.3-.5-.5-2.4-17.2-2.4-21.3 0-4.1.1-4.2 5.8-6.7 7.9-3.5 8.5-3.6 18.7-3.4 7.3.2 10 .7 14 2.7zM226 236.3l1.2 11.3-5.7 8.5-5.8 8.4-6.1.6c-3.3.4-6.3.5-6.5.3-1.2-1.1 1.9-15.5 4.4-20.7 2.3-5.1 14.8-19.7 16.6-19.7.4 0 1.2 5.1 1.9 11.3zm55.6 6.7c.5.5 4.7 2.9 9.4 5.3l8.5 4.4.3 11.4c.5 17.2.8 16.5-10.4 22.7-5.3 2.9-10.2 5.1-10.8 4.8-.6-.3-5.4-3.2-10.6-6.4l-9.5-5.9-.3-11.5-.3-11.6 10.8-7.1c5.9-3.9 11-7.1 11.4-7.1.3 0 .9.4 1.5 1zm30.2 21.7c-.6 16.8-1.1 19.6-3.7 19.1-1.4-.3-1.6-2.4-1.9-15.2-.2-14.2-.1-15 1.9-17.3 1.3-1.2 2.7-2.3 3.2-2.3.6 0 .8 6 .5 15.7zm-91.7 12c1.2 2.1 3.2 4.9 4.4 6.3 1.2 1.4 2.5 3.4 2.7 4.6.5 2.1-1.6 20.1-2.5 21-.2.3-3-2.3-6.2-5.8-5.6-6.2-13.8-21.1-14.8-27.1l-.4-2.7h14.5l2.3 3.7zm44 14.2 11.4 6.9.3 9 .3 8.9-5.1 2.2c-11.1 4.8-22.1 4.6-33.7-.5-6-2.6-5.8-2-4.3-14.5 1.7-13.3 1.2-12.5 8.7-14.8 3.8-1.1 7.5-2.5 8.3-3.1.8-.5 1.8-1 2.1-1 .4 0 5.8 3.1 12 6.9z"/></svg>